<?xml version="1.0" encoding="UTF-8" standalone="no"?>
<svg
   width="50"
   height="90"
   version="1.1"
   id="svg56"
   sodipodi:docname="help.svg"
   inkscape:version="1.1.2 (0a00cf5339, 2022-02-04, custom)"
   xmlns:inkscape="http://www.inkscape.org/namespaces/inkscape"
   xmlns:sodipodi="http://sodipodi.sourceforge.net/DTD/sodipodi-0.dtd"
   xmlns="http://www.w3.org/2000/svg"
   xmlns:svg="http://www.w3.org/2000/svg"
   xmlns:rdf="http://www.w3.org/1999/02/22-rdf-syntax-ns#"
   xmlns:cc="http://creativecommons.org/ns#"
   xmlns:dc="http://purl.org/dc/elements/1.1/">
  <metadata
     id="metadata62">
    <rdf:RDF>
      <cc:Work
         rdf:about="">
        <dc:format>image/svg+xml</dc:format>
        <dc:type
           rdf:resource="http://purl.org/dc/dcmitype/StillImage" />
        <dc:title>Vetro</dc:title>
      </cc:Work>
    </rdf:RDF>
  </metadata>
  <defs
     id="defs60" />
  <sodipodi:namedview
     pagecolor="#21212c"
     bordercolor="#666666"
     borderopacity="1"
     objecttolerance="10"
     gridtolerance="10"
     guidetolerance="10"
     inkscape:pageopacity="0"
     inkscape:pageshadow="2"
     inkscape:window-width="1896"
     inkscape:window-height="996"
     id="namedview58"
     showgrid="true"
     inkscape:snap-bbox="true"
     inkscape:bbox-nodes="true"
     inkscape:snap-bbox-edge-midpoints="true"
     inkscape:zoom="7.9422234"
     inkscape:cx="3.7143252"
     inkscape:cy="45.89395"
     inkscape:window-x="8"
     inkscape:window-y="42"
     inkscape:window-maximized="0"
     inkscape:current-layer="deactivated-center"
     inkscape:pagecheckerboard="0">
    <inkscape:grid
       type="xygrid"
       id="grid869"
       color="#666699"
       opacity="0.14901961"
       empcolor="#666699"
       empopacity="0.4" />
  </sodipodi:namedview>
  <title
     id="title2">Vetro</title>
  <g
     id="active-center"
     transform="matrix(3.7795,0,0,3.7795,-574.98,-677.53)">
    <rect
       x="153.46001"
       y="180.58"
       width="5.2916999"
       height="5.2916999"
       fill="none"
       id="rect4" />
    <path
       d="m 156.10039,181.64572 c -0.21052,0 -0.41241,0.0836 -0.56127,0.23249 -0.14886,0.14885 -0.23248,0.35075 -0.23248,0.56127 0,0.0351 0.0139,0.0687 0.0387,0.0935 0.0248,0.0248 0.0585,0.0387 0.0935,0.0387 0.0351,0 0.0687,-0.0139 0.0935,-0.0387 0.0248,-0.0248 0.0387,-0.0585 0.0387,-0.0935 0,-0.14035 0.0557,-0.27494 0.15499,-0.37418 0.0992,-0.0992 0.23384,-0.15499 0.37418,-0.15499 0.14035,0 0.27494,0.0557 0.37418,0.15499 0.0992,0.0992 0.15499,0.23383 0.15499,0.37418 0,0.17886 -0.037,0.28575 -0.0833,0.35983 -0.0484,0.0775 -0.11324,0.13071 -0.19765,0.19844 l -0.005,0.004 c -0.0799,0.064 -0.1778,0.14208 -0.25162,0.26062 -0.0778,0.12435 -0.12356,0.28204 -0.12356,0.50006 v 0.1323 c 0,0.0351 0.0139,0.0687 0.0387,0.0935 0.0248,0.0248 0.0585,0.0387 0.0935,0.0387 0.0351,0 0.0687,-0.014 0.0935,-0.0387 0.0248,-0.0248 0.0387,-0.0585 0.0387,-0.0935 v -0.1323 c 0,-0.17886 0.037,-0.28575 0.0833,-0.35983 0.0484,-0.0775 0.11324,-0.13071 0.19764,-0.19844 l 0.005,-0.004 c 0.0799,-0.064 0.1778,-0.14208 0.25162,-0.26062 0.0778,-0.12435 0.12356,-0.28205 0.12356,-0.50006 0,-0.21052 -0.0836,-0.41242 -0.23249,-0.56127 -0.14886,-0.14886 -0.35075,-0.23249 -0.56127,-0.23249 z m 0,3.17502 c 0.0526,0 0.10311,-0.0209 0.14032,-0.0581 0.0372,-0.0372 0.0581,-0.0877 0.0581,-0.14031 0,-0.0526 -0.0209,-0.1031 -0.0581,-0.1403 -0.0372,-0.0372 -0.0877,-0.0581 -0.14032,-0.0581 -0.0526,0 -0.1031,0.0209 -0.14032,0.0581 -0.0372,0.0372 -0.0581,0.0877 -0.0581,0.1403 0,0.0526 0.0209,0.10311 0.0581,0.14031 0.0372,0.0372 0.0877,0.0581 0.14032,0.0581 z"
       id="path855-6"
       style="opacity:0.75;fill:#9e9ede;fill-opacity:1;stroke-width:0.264585" />
  </g>
  <g
     id="hover-center"
     transform="matrix(3.7795,0,0,3.7795,-574.98,-657.53)">
    <rect
       x="153.46001"
       y="180.58"
       width="5.2916999"
       height="5.2916999"
       fill="none"
       id="rect9" />
    <rect
       style="opacity:0.5;fill:#47476b;fill-opacity:1;stroke-width:0.264585"
       id="rect2246"
       width="4.2333641"
       height="4.2333641"
       x="153.98334"
       y="181.11655"
       ry="0.79375899" />
    <path
       d="m 156.10001,181.64572 c -0.21052,0 -0.41241,0.0836 -0.56127,0.23249 -0.14886,0.14885 -0.23248,0.35075 -0.23248,0.56127 0,0.0351 0.0139,0.0687 0.0387,0.0935 0.0248,0.0248 0.0585,0.0387 0.0935,0.0387 0.0351,0 0.0687,-0.0139 0.0935,-0.0387 0.0248,-0.0248 0.0387,-0.0585 0.0387,-0.0935 0,-0.14035 0.0557,-0.27494 0.15499,-0.37418 0.0992,-0.0992 0.23384,-0.15499 0.37418,-0.15499 0.14035,0 0.27494,0.0557 0.37418,0.15499 0.0992,0.0992 0.15499,0.23383 0.15499,0.37418 0,0.17886 -0.037,0.28575 -0.0833,0.35983 -0.0484,0.0775 -0.11324,0.13071 -0.19765,0.19844 l -0.005,0.004 c -0.0799,0.064 -0.1778,0.14208 -0.25162,0.26062 -0.0778,0.12435 -0.12356,0.28204 -0.12356,0.50006 v 0.1323 c 0,0.0351 0.0139,0.0687 0.0387,0.0935 0.0248,0.0248 0.0585,0.0387 0.0935,0.0387 0.0351,0 0.0687,-0.014 0.0935,-0.0387 0.0248,-0.0248 0.0387,-0.0585 0.0387,-0.0935 v -0.1323 c 0,-0.17886 0.037,-0.28575 0.0833,-0.35983 0.0484,-0.0775 0.11324,-0.13071 0.19764,-0.19844 l 0.005,-0.004 c 0.0799,-0.064 0.1778,-0.14208 0.25162,-0.26062 0.0778,-0.12435 0.12356,-0.28205 0.12356,-0.50006 0,-0.21052 -0.0836,-0.41242 -0.23249,-0.56127 -0.14886,-0.14886 -0.35075,-0.23249 -0.56127,-0.23249 z m 0,3.17502 c 0.0526,0 0.10311,-0.0209 0.14032,-0.0581 0.0372,-0.0372 0.0581,-0.0877 0.0581,-0.14031 0,-0.0526 -0.0209,-0.1031 -0.0581,-0.1403 -0.0372,-0.0372 -0.0877,-0.0581 -0.14032,-0.0581 -0.0526,0 -0.1031,0.0209 -0.14032,0.0581 -0.0372,0.0372 -0.0581,0.0877 -0.0581,0.1403 0,0.0526 0.0209,0.10311 0.0581,0.14031 0.0372,0.0372 0.0877,0.0581 0.14032,0.0581 z"
       id="path855"
       style="fill:#9e9ede;fill-opacity:1;stroke-width:0.264585" />
  </g>
  <g
     id="deactivated-center"
     transform="matrix(3.7795,0,0,3.7795,-574.98,-617.53)">
    <rect
       x="153.46001"
       y="180.58"
       width="5.2916999"
       height="5.2916999"
       fill="none"
       id="rect23" />
    <rect
       style="fill:#47476b;fill-opacity:1;stroke-width:0.264585"
       id="rect2246-9"
       width="4.2333641"
       height="4.2333641"
       x="153.98334"
       y="181.11655"
       ry="0.79375899" />
    <path
       d="m 156.10039,181.64572 c -0.21052,0 -0.41241,0.0836 -0.56127,0.23249 -0.14886,0.14885 -0.23248,0.35075 -0.23248,0.56127 0,0.0351 0.0139,0.0687 0.0387,0.0935 0.0248,0.0248 0.0585,0.0387 0.0935,0.0387 0.0351,0 0.0687,-0.0139 0.0935,-0.0387 0.0248,-0.0248 0.0387,-0.0585 0.0387,-0.0935 0,-0.14035 0.0557,-0.27494 0.15499,-0.37418 0.0992,-0.0992 0.23384,-0.15499 0.37418,-0.15499 0.14035,0 0.27494,0.0557 0.37418,0.15499 0.0992,0.0992 0.15499,0.23383 0.15499,0.37418 0,0.17886 -0.037,0.28575 -0.0833,0.35983 -0.0484,0.0775 -0.11324,0.13071 -0.19765,0.19844 l -0.005,0.004 c -0.0799,0.064 -0.1778,0.14208 -0.25162,0.26062 -0.0778,0.12435 -0.12356,0.28204 -0.12356,0.50006 v 0.1323 c 0,0.0351 0.0139,0.0687 0.0387,0.0935 0.0248,0.0248 0.0585,0.0387 0.0935,0.0387 0.0351,0 0.0687,-0.014 0.0935,-0.0387 0.0248,-0.0248 0.0387,-0.0585 0.0387,-0.0935 v -0.1323 c 0,-0.17886 0.037,-0.28575 0.0833,-0.35983 0.0484,-0.0775 0.11324,-0.13071 0.19764,-0.19844 l 0.005,-0.004 c 0.0799,-0.064 0.1778,-0.14208 0.25162,-0.26062 0.0778,-0.12435 0.12356,-0.28205 0.12356,-0.50006 0,-0.21052 -0.0836,-0.41242 -0.23249,-0.56127 -0.14886,-0.14886 -0.35075,-0.23249 -0.56127,-0.23249 z m 0,3.17502 c 0.0526,0 0.10311,-0.0209 0.14032,-0.0581 0.0372,-0.0372 0.0581,-0.0877 0.0581,-0.14031 0,-0.0526 -0.0209,-0.1031 -0.0581,-0.1403 -0.0372,-0.0372 -0.0877,-0.0581 -0.14032,-0.0581 -0.0526,0 -0.1031,0.0209 -0.14032,0.0581 -0.0372,0.0372 -0.0581,0.0877 -0.0581,0.1403 0,0.0526 0.0209,0.10311 0.0581,0.14031 0.0372,0.0372 0.0877,0.0581 0.14032,0.0581 z"
       id="path855-1"
       style="fill:#9e9ede;fill-opacity:1;stroke-width:0.264585" />
  </g>
  <g
     id="inactive-center"
     transform="matrix(3.7795,0,0,3.7795,-554.98,-677.53)"
     opacity="0.65"
     style="opacity:0.5">
    <rect
       x="153.46001"
       y="180.58"
       width="5.2916999"
       height="5.2916999"
       fill="none"
       opacity="1"
       id="rect30" />
    <path
       d="m 156.10001,181.64572 c -0.21052,0 -0.41241,0.0836 -0.56127,0.23249 -0.14886,0.14885 -0.23248,0.35075 -0.23248,0.56127 0,0.0351 0.0139,0.0687 0.0387,0.0935 0.0248,0.0248 0.0585,0.0387 0.0935,0.0387 0.0351,0 0.0687,-0.0139 0.0935,-0.0387 0.0248,-0.0248 0.0387,-0.0585 0.0387,-0.0935 0,-0.14035 0.0557,-0.27494 0.15499,-0.37418 0.0992,-0.0992 0.23384,-0.15499 0.37418,-0.15499 0.14035,0 0.27494,0.0557 0.37418,0.15499 0.0992,0.0992 0.15499,0.23383 0.15499,0.37418 0,0.17886 -0.037,0.28575 -0.0833,0.35983 -0.0484,0.0775 -0.11324,0.13071 -0.19765,0.19844 l -0.005,0.004 c -0.0799,0.064 -0.1778,0.14208 -0.25162,0.26062 -0.0778,0.12435 -0.12356,0.28204 -0.12356,0.50006 v 0.1323 c 0,0.0351 0.0139,0.0687 0.0387,0.0935 0.0248,0.0248 0.0585,0.0387 0.0935,0.0387 0.0351,0 0.0687,-0.014 0.0935,-0.0387 0.0248,-0.0248 0.0387,-0.0585 0.0387,-0.0935 v -0.1323 c 0,-0.17886 0.037,-0.28575 0.0833,-0.35983 0.0484,-0.0775 0.11324,-0.13071 0.19764,-0.19844 l 0.005,-0.004 c 0.0799,-0.064 0.1778,-0.14208 0.25162,-0.26062 0.0778,-0.12435 0.12356,-0.28205 0.12356,-0.50006 0,-0.21052 -0.0836,-0.41242 -0.23249,-0.56127 -0.14886,-0.14886 -0.35075,-0.23249 -0.56127,-0.23249 z m 0,3.17502 c 0.0526,0 0.10311,-0.0209 0.14032,-0.0581 0.0372,-0.0372 0.0581,-0.0877 0.0581,-0.14031 0,-0.0526 -0.0209,-0.1031 -0.0581,-0.1403 -0.0372,-0.0372 -0.0877,-0.0581 -0.14032,-0.0581 -0.0526,0 -0.1031,0.0209 -0.14032,0.0581 -0.0372,0.0372 -0.0581,0.0877 -0.0581,0.1403 0,0.0526 0.0209,0.10311 0.0581,0.14031 0.0372,0.0372 0.0877,0.0581 0.14032,0.0581 z"
       id="path855-5"
       style="fill:#9e9ede;fill-opacity:1;stroke-width:0.264585" />
  </g>
  <g
     id="hover-inactive-center"
     transform="matrix(3.7795,0,0,3.7795,-554.98,-657.53)"
     opacity="0.65">
    <rect
       x="153.46001"
       y="180.58"
       width="5.2916999"
       height="5.2916999"
       fill="none"
       opacity="1"
       id="rect35" />
    <rect
       style="opacity:0.5;fill:#47476b;fill-opacity:1;stroke-width:0.264585"
       id="rect2246-7"
       width="4.2333641"
       height="4.2333641"
       x="153.98334"
       y="181.11655"
       ry="0.79375899" />
    <path
       d="m 156.10039,181.64572 c -0.21052,0 -0.41241,0.0836 -0.56127,0.23249 -0.14886,0.14885 -0.23248,0.35075 -0.23248,0.56127 0,0.0351 0.0139,0.0687 0.0387,0.0935 0.0248,0.0248 0.0585,0.0387 0.0935,0.0387 0.0351,0 0.0687,-0.0139 0.0935,-0.0387 0.0248,-0.0248 0.0387,-0.0585 0.0387,-0.0935 0,-0.14035 0.0557,-0.27494 0.15499,-0.37418 0.0992,-0.0992 0.23384,-0.15499 0.37418,-0.15499 0.14035,0 0.27494,0.0557 0.37418,0.15499 0.0992,0.0992 0.15499,0.23383 0.15499,0.37418 0,0.17886 -0.037,0.28575 -0.0833,0.35983 -0.0484,0.0775 -0.11324,0.13071 -0.19765,0.19844 l -0.005,0.004 c -0.0799,0.064 -0.1778,0.14208 -0.25162,0.26062 -0.0778,0.12435 -0.12356,0.28204 -0.12356,0.50006 v 0.1323 c 0,0.0351 0.0139,0.0687 0.0387,0.0935 0.0248,0.0248 0.0585,0.0387 0.0935,0.0387 0.0351,0 0.0687,-0.014 0.0935,-0.0387 0.0248,-0.0248 0.0387,-0.0585 0.0387,-0.0935 v -0.1323 c 0,-0.17886 0.037,-0.28575 0.0833,-0.35983 0.0484,-0.0775 0.11324,-0.13071 0.19764,-0.19844 l 0.005,-0.004 c 0.0799,-0.064 0.1778,-0.14208 0.25162,-0.26062 0.0778,-0.12435 0.12356,-0.28205 0.12356,-0.50006 0,-0.21052 -0.0836,-0.41242 -0.23249,-0.56127 -0.14886,-0.14886 -0.35075,-0.23249 -0.56127,-0.23249 z m 0,3.17502 c 0.0526,0 0.10311,-0.0209 0.14032,-0.0581 0.0372,-0.0372 0.0581,-0.0877 0.0581,-0.14031 0,-0.0526 -0.0209,-0.1031 -0.0581,-0.1403 -0.0372,-0.0372 -0.0877,-0.0581 -0.14032,-0.0581 -0.0526,0 -0.1031,0.0209 -0.14032,0.0581 -0.0372,0.0372 -0.0581,0.0877 -0.0581,0.1403 0,0.0526 0.0209,0.10311 0.0581,0.14031 0.0372,0.0372 0.0877,0.0581 0.14032,0.0581 z"
       id="path855-3"
       style="fill:#9e9ede;fill-opacity:1;stroke-width:0.264585" />
  </g>
  <g
     id="deactivated-inactive-center"
     transform="matrix(3.7795,0,0,3.7795,-554.98,-617.53)"
     opacity="0.65">
    <rect
       x="153.46001"
       y="180.58"
       width="5.2916999"
       height="5.2916999"
       fill="none"
       opacity="1"
       id="rect49" />
    <rect
       style="fill:#47476b;fill-opacity:1;stroke-width:0.264585"
       id="rect2246-2"
       width="4.2333641"
       height="4.2333641"
       x="153.98334"
       y="181.11655"
       ry="0.79375899" />
    <path
       d="m 156.10039,181.64572 c -0.21052,0 -0.41241,0.0836 -0.56127,0.23249 -0.14886,0.14885 -0.23248,0.35075 -0.23248,0.56127 0,0.0351 0.0139,0.0687 0.0387,0.0935 0.0248,0.0248 0.0585,0.0387 0.0935,0.0387 0.0351,0 0.0687,-0.0139 0.0935,-0.0387 0.0248,-0.0248 0.0387,-0.0585 0.0387,-0.0935 0,-0.14035 0.0557,-0.27494 0.15499,-0.37418 0.0992,-0.0992 0.23384,-0.15499 0.37418,-0.15499 0.14035,0 0.27494,0.0557 0.37418,0.15499 0.0992,0.0992 0.15499,0.23383 0.15499,0.37418 0,0.17886 -0.037,0.28575 -0.0833,0.35983 -0.0484,0.0775 -0.11324,0.13071 -0.19765,0.19844 l -0.005,0.004 c -0.0799,0.064 -0.1778,0.14208 -0.25162,0.26062 -0.0778,0.12435 -0.12356,0.28204 -0.12356,0.50006 v 0.1323 c 0,0.0351 0.0139,0.0687 0.0387,0.0935 0.0248,0.0248 0.0585,0.0387 0.0935,0.0387 0.0351,0 0.0687,-0.014 0.0935,-0.0387 0.0248,-0.0248 0.0387,-0.0585 0.0387,-0.0935 v -0.1323 c 0,-0.17886 0.037,-0.28575 0.0833,-0.35983 0.0484,-0.0775 0.11324,-0.13071 0.19764,-0.19844 l 0.005,-0.004 c 0.0799,-0.064 0.1778,-0.14208 0.25162,-0.26062 0.0778,-0.12435 0.12356,-0.28205 0.12356,-0.50006 0,-0.21052 -0.0836,-0.41242 -0.23249,-0.56127 -0.14886,-0.14886 -0.35075,-0.23249 -0.56127,-0.23249 z m 0,3.17502 c 0.0526,0 0.10311,-0.0209 0.14032,-0.0581 0.0372,-0.0372 0.0581,-0.0877 0.0581,-0.14031 0,-0.0526 -0.0209,-0.1031 -0.0581,-0.1403 -0.0372,-0.0372 -0.0877,-0.0581 -0.14032,-0.0581 -0.0526,0 -0.1031,0.0209 -0.14032,0.0581 -0.0372,0.0372 -0.0581,0.0877 -0.0581,0.1403 0,0.0526 0.0209,0.10311 0.0581,0.14031 0.0372,0.0372 0.0877,0.0581 0.14032,0.0581 z"
       id="path855-2"
       style="fill:#9e9ede;fill-opacity:1;stroke-width:0.264585" />
  </g>
  <g
     id="pressed-center">
    <rect
       x="4.9920955"
       y="44.982117"
       width="19.999979"
       height="19.999979"
       id="rect16"
       style="fill:none;stroke-width:3.7795" />
    <rect
       style="fill:#47476b;fill-opacity:1;stroke-width:0.999999"
       id="rect2246-5"
       width="16"
       height="16"
       x="7"
       y="47"
       ry="3.0000122" />
    <path
       d="m 15.00142,49.000006 c -0.795661,0 -1.558704,0.315966 -2.12132,0.878696 -0.562617,0.562578 -0.878658,1.325659 -0.878658,2.12132 0,0.13266 0.05253,0.259651 0.146266,0.353383 0.09373,0.09373 0.221101,0.146267 0.353384,0.146267 0.13266,0 0.259651,-0.05253 0.353383,-0.146267 0.09373,-0.09373 0.146266,-0.221101 0.146266,-0.353383 0,-0.530453 0.210519,-1.039136 0.585785,-1.414214 0.374927,-0.374926 0.883798,-0.585784 1.414213,-0.585784 0.530453,0 1.039136,0.210518 1.414214,0.585784 0.374926,0.374927 0.585785,0.883761 0.585785,1.414214 0,0.676001 -0.139842,1.079992 -0.314833,1.359977 -0.182928,0.292911 -0.42799,0.494019 -0.747018,0.750004 l -0.0189,0.01512 c -0.301982,0.241888 -0.671995,0.536991 -0.950997,0.985013 -0.294045,0.469981 -0.466995,1.065971 -0.466995,1.889977 v 0.500028 c 0,0.13266 0.05253,0.259652 0.146266,0.353383 0.09373,0.09373 0.221101,0.146267 0.353384,0.146267 0.13266,0 0.259651,-0.05291 0.353383,-0.146267 0.09373,-0.09373 0.146266,-0.2211 0.146266,-0.353383 v -0.500028 c 0,-0.676001 0.139842,-1.079992 0.314833,-1.359977 0.182928,-0.292912 0.42799,-0.494019 0.74698,-0.750004 l 0.0189,-0.01512 C 16.883989,54.633124 17.254002,54.33802 17.533004,53.889998 17.82705,53.420018 18,52.82399 18,52.000022 c 0,-0.795661 -0.315967,-1.558742 -0.878696,-2.12132 -0.562617,-0.562617 -1.32566,-0.878696 -2.12132,-0.878696 z m 0,11.999988 c 0.198801,0 0.389704,-0.07899 0.530339,-0.219589 0.140598,-0.140598 0.219589,-0.331462 0.219589,-0.530302 0,-0.198801 -0.07899,-0.389666 -0.219589,-0.530264 -0.140597,-0.140597 -0.331462,-0.219589 -0.530339,-0.219589 -0.198802,0 -0.389667,0.07899 -0.53034,0.219589 -0.140597,0.140598 -0.219589,0.331463 -0.219589,0.530264 0,0.198802 0.07899,0.389704 0.219589,0.530302 0.140598,0.140597 0.331463,0.219589 0.53034,0.219589 z"
       id="path855-56"
       style="fill:#f86797;fill-opacity:1;stroke-width:0.999999" />
  </g>
  <g
     id="pressed-inactive-center"
     transform="translate(19.996601)">
    <rect
       style="fill:none;stroke-width:3.7795"
       id="rect884"
       height="19.999979"
       width="19.999979"
       y="44.982117"
       x="4.9920955" />
    <rect
       style="fill:#47476b;fill-opacity:1;stroke-width:0.999999"
       id="rect2246-3"
       width="16"
       height="16"
       x="7.0033989"
       y="47"
       ry="3.0000122" />
    <path
       d="m 15.004819,49.000006 c -0.795661,0 -1.558704,0.315966 -2.12132,0.878696 -0.562617,0.562578 -0.878658,1.325659 -0.878658,2.12132 0,0.13266 0.05253,0.259651 0.146266,0.353383 0.09373,0.09373 0.221101,0.146267 0.353384,0.146267 0.13266,0 0.259651,-0.05253 0.353383,-0.146267 0.09373,-0.09373 0.146266,-0.221101 0.146266,-0.353383 0,-0.530453 0.210519,-1.039136 0.585785,-1.414214 0.374927,-0.374926 0.883798,-0.585784 1.414213,-0.585784 0.530453,0 1.039136,0.210518 1.414214,0.585784 0.374926,0.374927 0.585785,0.883761 0.585785,1.414214 0,0.676001 -0.139842,1.079992 -0.314833,1.359977 -0.182928,0.292911 -0.42799,0.494019 -0.747018,0.750004 l -0.0189,0.01512 c -0.301982,0.241888 -0.671995,0.536991 -0.950997,0.985013 -0.294045,0.469981 -0.466995,1.065971 -0.466995,1.889977 v 0.500028 c 0,0.13266 0.05253,0.259652 0.146266,0.353383 0.09373,0.09373 0.221101,0.146267 0.353384,0.146267 0.13266,0 0.259651,-0.05291 0.353383,-0.146267 0.09373,-0.09373 0.146266,-0.2211 0.146266,-0.353383 v -0.500028 c 0,-0.676001 0.139842,-1.079992 0.314833,-1.359977 0.182928,-0.292912 0.42799,-0.494019 0.74698,-0.750004 l 0.0189,-0.01512 c 0.301982,-0.241888 0.671995,-0.536992 0.950997,-0.985014 0.294046,-0.46998 0.466996,-1.066008 0.466996,-1.889976 0,-0.795661 -0.315967,-1.558742 -0.878696,-2.12132 -0.562617,-0.562617 -1.32566,-0.878696 -2.12132,-0.878696 z m 0,11.999988 c 0.198801,0 0.389704,-0.07899 0.530339,-0.219589 0.140598,-0.140598 0.219589,-0.331462 0.219589,-0.530302 0,-0.198801 -0.07899,-0.389666 -0.219589,-0.530264 -0.140597,-0.140597 -0.331462,-0.219589 -0.530339,-0.219589 -0.198802,0 -0.389667,0.07899 -0.53034,0.219589 -0.140597,0.140598 -0.219589,0.331463 -0.219589,0.530264 0,0.198802 0.07899,0.389704 0.219589,0.530302 0.140598,0.140597 0.331463,0.219589 0.53034,0.219589 z"
       id="path855-56-2"
       style="fill:#f86797;fill-opacity:1;stroke-width:0.999999" />
  </g>
</svg>
