<?xml version="1.0" encoding="UTF-8" standalone="no"?>
<svg
   width="50"
   height="90"
   version="1.1"
   id="svg56"
   sodipodi:docname="keepabove.svg"
   inkscape:version="1.1.2 (0a00cf5339, 2022-02-04, custom)"
   xmlns:inkscape="http://www.inkscape.org/namespaces/inkscape"
   xmlns:sodipodi="http://sodipodi.sourceforge.net/DTD/sodipodi-0.dtd"
   xmlns="http://www.w3.org/2000/svg"
   xmlns:svg="http://www.w3.org/2000/svg"
   xmlns:rdf="http://www.w3.org/1999/02/22-rdf-syntax-ns#"
   xmlns:cc="http://creativecommons.org/ns#"
   xmlns:dc="http://purl.org/dc/elements/1.1/">
  <metadata
     id="metadata62">
    <rdf:RDF>
      <cc:Work
         rdf:about="">
        <dc:format>image/svg+xml</dc:format>
        <dc:type
           rdf:resource="http://purl.org/dc/dcmitype/StillImage" />
        <dc:title>Vetro</dc:title>
      </cc:Work>
    </rdf:RDF>
  </metadata>
  <defs
     id="defs60" />
  <sodipodi:namedview
     pagecolor="#21212c"
     bordercolor="#666666"
     borderopacity="1"
     objecttolerance="10"
     gridtolerance="10"
     guidetolerance="10"
     inkscape:pageopacity="0"
     inkscape:pageshadow="2"
     inkscape:window-width="1896"
     inkscape:window-height="996"
     id="namedview58"
     showgrid="true"
     inkscape:snap-bbox="true"
     inkscape:bbox-nodes="true"
     inkscape:snap-bbox-edge-midpoints="true"
     inkscape:zoom="5.616"
     inkscape:cx="3.0270655"
     inkscape:cy="41.043447"
     inkscape:window-x="8"
     inkscape:window-y="42"
     inkscape:window-maximized="0"
     inkscape:current-layer="deactivated-inactive-center"
     inkscape:pagecheckerboard="0">
    <inkscape:grid
       type="xygrid"
       id="grid869"
       color="#666699"
       opacity="0.14901961"
       empcolor="#666699"
       empopacity="0.4" />
  </sodipodi:namedview>
  <title
     id="title2">Vetro</title>
  <g
     id="active-center"
     transform="matrix(3.7795,0,0,3.7795,-574.98,-677.53)">
    <rect
       x="153.46001"
       y="180.58"
       width="5.2916999"
       height="5.2916999"
       fill="none"
       id="rect4" />
    <path
       id="path4164"
       d="m 156.01206,182.20877 c 0.0501,-0.0446 0.12564,-0.0446 0.17578,0 l 1.19063,1.05834 c 0.0546,0.0485 0.0595,0.13216 0.011,0.18677 -0.0485,0.0546 -0.13216,0.0595 -0.18677,0.011 l -1.10273,-0.98021 -1.10275,0.98021 c -0.0546,0.0486 -0.13822,0.0436 -0.18676,-0.011 -0.0485,-0.0546 -0.0436,-0.13822 0.011,-0.18677 z m 0,0.79375 c 0.0501,-0.0446 0.12564,-0.0446 0.17578,0 l 1.19063,1.05834 c 0.0546,0.0486 0.0595,0.13217 0.011,0.18678 -0.0485,0.0546 -0.13216,0.0595 -0.18677,0.011 l -1.10273,-0.98021 -1.10275,0.98021 c -0.0546,0.0486 -0.13822,0.0436 -0.18676,-0.011 -0.0485,-0.0546 -0.0436,-0.13822 0.011,-0.18678 z"
       style="opacity:0.75;fill:#9e9ede;fill-opacity:1;stroke-width:0.264585" />
  </g>
  <g
     id="hover-center"
     transform="matrix(3.7795,0,0,3.7795,-574.98,-657.53)">
    <rect
       x="153.46001"
       y="180.58"
       width="5.2916999"
       height="5.2916999"
       fill="none"
       id="rect9" />
    <rect
       style="opacity:0.5;fill:#47476b;fill-opacity:1;stroke-width:0.264585"
       id="rect2246"
       width="4.2333641"
       height="4.2333641"
       x="153.98334"
       y="181.11655"
       ry="0.79375899" />
    <path
       id="path4164-9"
       d="m 156.01214,182.20831 c 0.0501,-0.0446 0.12564,-0.0446 0.17578,0 l 1.19063,1.05834 c 0.0546,0.0486 0.0595,0.13216 0.011,0.18677 -0.0485,0.0546 -0.13216,0.0595 -0.18677,0.011 l -1.10273,-0.98021 -1.10275,0.98021 c -0.0546,0.0486 -0.13822,0.0436 -0.18676,-0.011 -0.0485,-0.0546 -0.0436,-0.13822 0.011,-0.18677 z m 0,0.79375 c 0.0501,-0.0446 0.12564,-0.0446 0.17578,0 l 1.19063,1.05834 c 0.0546,0.0486 0.0595,0.13217 0.011,0.18678 -0.0485,0.0546 -0.13216,0.0595 -0.18677,0.011 l -1.10273,-0.98021 -1.10275,0.98021 c -0.0546,0.0485 -0.13822,0.0436 -0.18676,-0.011 -0.0485,-0.0546 -0.0436,-0.13822 0.011,-0.18678 z"
       style="fill:#9e9ede;fill-opacity:1;stroke-width:0.264585" />
  </g>
  <g
     id="deactivated-center"
     transform="matrix(3.7795,0,0,3.7795,-574.98,-617.53)">
    <rect
       x="153.46001"
       y="180.58"
       width="5.2916999"
       height="5.2916999"
       fill="none"
       id="rect23" />
    <rect
       style="fill:#47476b;fill-opacity:1;stroke-width:0.264585"
       id="rect2246-9"
       width="4.2333641"
       height="4.2333641"
       x="153.98334"
       y="181.11655"
       ry="0.79375899" />
    <path
       id="path4164-9-3"
       d="m 156.01208,182.20831 c 0.0501,-0.0446 0.12564,-0.0446 0.17578,0 l 1.19063,1.05834 c 0.0546,0.0486 0.0595,0.13216 0.011,0.18677 -0.0485,0.0546 -0.13216,0.0595 -0.18677,0.011 l -1.10273,-0.98021 -1.10275,0.98021 c -0.0546,0.0486 -0.13822,0.0436 -0.18676,-0.011 -0.0485,-0.0546 -0.0436,-0.13822 0.011,-0.18677 z m 0,0.79375 c 0.0501,-0.0446 0.12564,-0.0446 0.17578,0 l 1.19063,1.05834 c 0.0546,0.0486 0.0595,0.13217 0.011,0.18678 -0.0485,0.0546 -0.13216,0.0595 -0.18677,0.011 l -1.10273,-0.98021 -1.10275,0.98021 c -0.0546,0.0485 -0.13822,0.0436 -0.18676,-0.011 -0.0485,-0.0546 -0.0436,-0.13822 0.011,-0.18678 z"
       style="fill:#9e9ede;fill-opacity:1;stroke-width:0.264585" />
  </g>
  <g
     id="inactive-center"
     transform="matrix(3.7795,0,0,3.7795,-554.98,-677.53)"
     opacity="0.65"
     style="opacity:0.5">
    <rect
       x="153.46001"
       y="180.58"
       width="5.2916999"
       height="5.2916999"
       fill="none"
       opacity="1"
       id="rect30" />
    <path
       id="path4164-7"
       d="m 156.01208,182.20842 c 0.0501,-0.0446 0.12564,-0.0446 0.17578,0 l 1.19063,1.05834 c 0.0546,0.0486 0.0595,0.13216 0.011,0.18677 -0.0485,0.0546 -0.13216,0.0595 -0.18677,0.011 l -1.10273,-0.98021 -1.10275,0.98021 c -0.0546,0.0486 -0.13822,0.0436 -0.18676,-0.011 -0.0485,-0.0546 -0.0436,-0.13822 0.011,-0.18677 z m 0,0.79375 c 0.0501,-0.0446 0.12564,-0.0446 0.17578,0 l 1.19063,1.05834 c 0.0546,0.0486 0.0595,0.13217 0.011,0.18678 -0.0485,0.0546 -0.13216,0.0595 -0.18677,0.011 l -1.10273,-0.98021 -1.10275,0.98021 c -0.0546,0.0485 -0.13822,0.0436 -0.18676,-0.011 -0.0485,-0.0546 -0.0436,-0.13822 0.011,-0.18678 z"
       style="fill:#9e9ede;fill-opacity:1;stroke-width:0.264585" />
  </g>
  <g
     id="hover-inactive-center"
     transform="matrix(3.7795,0,0,3.7795,-554.98,-657.53)"
     opacity="0.65">
    <rect
       x="153.46001"
       y="180.58"
       width="5.2916999"
       height="5.2916999"
       fill="none"
       opacity="1"
       id="rect35" />
    <rect
       style="opacity:0.5;fill:#47476b;fill-opacity:1;stroke-width:0.264585"
       id="rect2246-7"
       width="4.2333641"
       height="4.2333641"
       x="153.98334"
       y="181.11655"
       ry="0.79375899" />
    <path
       id="path4164-2"
       d="m 156.01206,182.20877 c 0.0501,-0.0446 0.12564,-0.0446 0.17578,0 l 1.19063,1.05834 c 0.0546,0.0486 0.0595,0.13216 0.011,0.18677 -0.0485,0.0546 -0.13216,0.0595 -0.18677,0.011 l -1.10273,-0.98021 -1.10275,0.98021 c -0.0546,0.0485 -0.13822,0.0436 -0.18676,-0.011 -0.0485,-0.0546 -0.0436,-0.13822 0.011,-0.18677 z m 0,0.79375 c 0.0501,-0.0446 0.12564,-0.0446 0.17578,0 l 1.19063,1.05834 c 0.0546,0.0486 0.0595,0.13217 0.011,0.18678 -0.0485,0.0546 -0.13216,0.0595 -0.18677,0.011 l -1.10273,-0.98021 -1.10275,0.98021 c -0.0546,0.0486 -0.13822,0.0436 -0.18676,-0.011 -0.0485,-0.0546 -0.0436,-0.13822 0.011,-0.18678 z"
       style="fill:#9e9ede;fill-opacity:1;stroke-width:0.264585" />
  </g>
  <g
     id="deactivated-inactive-center"
     transform="matrix(3.7795,0,0,3.7795,-554.98,-617.53)"
     opacity="0.65">
    <rect
       x="153.46001"
       y="180.58"
       width="5.2916999"
       height="5.2916999"
       fill="none"
       opacity="1"
       id="rect49" />
    <rect
       style="fill:#47476b;fill-opacity:1;stroke-width:0.264585"
       id="rect2246-2"
       width="4.2333641"
       height="4.2333641"
       x="153.98334"
       y="181.11655"
       ry="0.79375899" />
    <path
       id="path4164-9-7"
       d="m 156.01207,182.20868 c 0.0501,-0.0446 0.12564,-0.0446 0.17578,0 l 1.19063,1.05834 c 0.0546,0.0486 0.0595,0.13216 0.011,0.18677 -0.0485,0.0546 -0.13216,0.0595 -0.18677,0.011 l -1.10273,-0.98021 -1.10275,0.98021 c -0.0546,0.0486 -0.13822,0.0436 -0.18676,-0.011 -0.0485,-0.0546 -0.0436,-0.13822 0.011,-0.18677 z m 0,0.79375 c 0.0501,-0.0446 0.12564,-0.0446 0.17578,0 l 1.19063,1.05834 c 0.0546,0.0486 0.0595,0.13217 0.011,0.18678 -0.0485,0.0546 -0.13216,0.0595 -0.18677,0.011 l -1.10273,-0.98021 -1.10275,0.98021 c -0.0546,0.0485 -0.13822,0.0436 -0.18676,-0.011 -0.0485,-0.0546 -0.0436,-0.13822 0.011,-0.18678 z"
       style="fill:#9e9ede;fill-opacity:1;stroke-width:0.264585" />
  </g>
  <g
     id="pressed-center">
    <rect
       x="4.9920955"
       y="44.982117"
       width="19.999979"
       height="19.999979"
       id="rect16"
       style="fill:none;stroke-width:3.7795" />
    <rect
       style="fill:#f86797;fill-opacity:1;stroke-width:0.999999"
       id="rect2246-5"
       width="16"
       height="16"
       x="7"
       y="47"
       ry="3.0000122" />
    <path
       id="path4164-0"
       d="m 14.667822,51.12627 c 0.18945,-0.1684 0.47488,-0.1684 0.66438,0 l 4.5,4 c 0.2064,0.1835 0.225,0.4995 0.0415,0.7059 -0.1834,0.2064 -0.4995,0.225 -0.7059,0.0415 l -4.1678,-3.70472 -4.16781,3.70472 c -0.20639,0.1835 -0.52243,0.1649 -0.70589,-0.0415 -0.1834602,-0.2064 -0.1648702,-0.5224 0.04152,-0.7059 z m 0,3 c 0.18945,-0.1684 0.47488,-0.1684 0.66438,0 l 4.5,4 c 0.2064,0.1835 0.225,0.4995 0.0415,0.7059 -0.1834,0.2064 -0.4995,0.225 -0.7059,0.0415 l -4.1678,-3.7047 -4.16781,3.7047 c -0.20639,0.1835 -0.52243,0.1649 -0.70589,-0.0415 -0.1834602,-0.2064 -0.1648702,-0.5224 0.04152,-0.7059 z"
       style="fill:#ffffff;fill-opacity:1" />
  </g>
  <g
     id="pressed-inactive-center"
     transform="translate(19.996601)">
    <rect
       style="fill:none;stroke-width:3.7795"
       id="rect884"
       height="19.999979"
       width="19.999979"
       y="44.982117"
       x="4.9920955" />
    <rect
       style="fill:#f86797;fill-opacity:1;stroke-width:0.999999"
       id="rect2246-3"
       width="16"
       height="16"
       x="7.0033989"
       y="47"
       ry="3.0000122" />
    <path
       id="path4164-0-2"
       d="m 14.671221,51.12627 c 0.18945,-0.1684 0.47488,-0.1684 0.66438,0 l 4.5,4 c 0.2064,0.1835 0.225,0.4995 0.0415,0.7059 -0.1834,0.2064 -0.4995,0.225 -0.7059,0.0415 l -4.1678,-3.70472 -4.16781,3.70472 c -0.20639,0.1835 -0.52243,0.1649 -0.70589,-0.0415 -0.1834602,-0.2064 -0.1648702,-0.5224 0.04152,-0.7059 z m 0,3 c 0.18945,-0.1684 0.47488,-0.1684 0.66438,0 l 4.5,4 c 0.2064,0.1835 0.225,0.4995 0.0415,0.7059 -0.1834,0.2064 -0.4995,0.225 -0.7059,0.0415 l -4.1678,-3.7047 -4.16781,3.7047 c -0.20639,0.1835 -0.52243,0.1649 -0.70589,-0.0415 -0.1834602,-0.2064 -0.1648702,-0.5224 0.04152,-0.7059 z"
       style="fill:#ffffff;fill-opacity:1" />
  </g>
</svg>
