<?xml version="1.0" encoding="UTF-8" standalone="no"?>
<svg
   id="svg4306"
   width="23"
   height="23"
   version="1.1"
   style="enable-background:new"
   sodipodi:docname="minimize.svg"
   inkscape:version="1.1.2 (0a00cf5339, 2022-02-04, custom)"
   xmlns:inkscape="http://www.inkscape.org/namespaces/inkscape"
   xmlns:sodipodi="http://sodipodi.sourceforge.net/DTD/sodipodi-0.dtd"
   xmlns="http://www.w3.org/2000/svg"
   xmlns:svg="http://www.w3.org/2000/svg"
   xmlns:rdf="http://www.w3.org/1999/02/22-rdf-syntax-ns#"
   xmlns:cc="http://creativecommons.org/ns#"
   xmlns:dc="http://purl.org/dc/elements/1.1/">
  <metadata
     id="metadata26">
    <rdf:RDF>
      <cc:Work
         rdf:about="">
        <dc:format>image/svg+xml</dc:format>
        <dc:type
           rdf:resource="http://purl.org/dc/dcmitype/StillImage" />
      </cc:Work>
    </rdf:RDF>
  </metadata>
  <defs
     id="defs24">
    <linearGradient
       id="fg_color"
       inkscape:swatch="solid">
      <stop
         style="stop-color:#d3dae3;stop-opacity:1;"
         offset="0"
         id="stop1387" />
    </linearGradient>
  </defs>
  <sodipodi:namedview
     pagecolor="#373737"
     bordercolor="#666666"
     borderopacity="1"
     objecttolerance="10"
     gridtolerance="10"
     guidetolerance="10"
     inkscape:pageopacity="0"
     inkscape:pageshadow="2"
     inkscape:window-width="940"
     inkscape:window-height="996"
     id="namedview22"
     showgrid="true"
     inkscape:snap-bbox="true"
     inkscape:bbox-nodes="true"
     inkscape:snap-nodes="false"
     inkscape:zoom="4"
     inkscape:cx="12"
     inkscape:cy="15.875"
     inkscape:window-x="8"
     inkscape:window-y="42"
     inkscape:window-maximized="0"
     inkscape:current-layer="svg4306"
     inkscape:pagecheckerboard="0">
    <inkscape:grid
       type="xygrid"
       id="grid882" />
  </sodipodi:namedview>
  <g
     style="display:inline"
     id="hover-center"
     transform="translate(70,732.63782)"
     inkscape:label="#hover-center">
    <rect
       ry="3.944912"
       y="-693.63782"
       x="-70"
       height="23"
       width="23"
       id="rect573"
       style="opacity:0.5;fill:#47476b;fill-opacity:1;stroke:none;stroke-width:0.92;stroke-linecap:round;stroke-linejoin:miter;stroke-miterlimit:4;stroke-dasharray:none;stroke-opacity:1;paint-order:stroke fill markers" />
    <path
       d="m -52.146932,-687.78482 c 0.521596,-0.4997 -0.401256,-1.22905 -0.785992,-0.62998 -1.022669,1.02299 -2.045339,2.04599 -3.068008,3.06898 -0.0062,-0.63019 0.01251,-1.2616 -0.0097,-1.891 -0.123032,-0.67268 -1.158132,-0.39279 -0.990271,0.24509 0.0075,0.95666 -0.01512,1.9148 0.01164,2.87051 0.08691,0.50099 0.6322,0.50365 1.029622,0.4824 0.852099,-0.006 1.70544,0.0127 2.556744,-0.01 0.672653,-0.12309 0.392775,-1.1582 -0.245128,-0.9903 -0.548638,0 -1.097276,0 -1.645914,0 1.049,-1.04867 2.098,-2.09734 3.147,-3.146 z m -8.352438,11.1463 c -0.493701,0.003 -0.532486,-0.5348 -0.5,-0.90449 0,-0.46283 0,-0.92567 0,-1.38851 -1.07611,1.06738 -2.134965,2.15379 -3.221858,3.20928 -0.563114,0.38975 -1.098775,-0.54129 -0.52812,-0.87427 1.014326,-1.014 2.028652,-2.02801 3.042978,-3.04201 -0.630188,-0.006 -1.261601,0.0125 -1.890996,-0.01 -0.672671,-0.12306 -0.392802,-1.15814 0.245082,-0.99029 0.956662,0.007 1.914806,-0.0151 2.870516,0.0116 0.50099,0.0869 0.503651,0.6322 0.482398,1.02962 -0.0063,0.85209 0.01266,1.70543 -0.0097,2.55672 -0.04164,0.22862 -0.257966,0.40593 -0.490305,0.402 z"
       id="path839-6-9"
       style="display:inline;fill:#9e9ede;fill-opacity:1;stroke:none" />
  </g>
  <g
     id="inactive-center"
     transform="translate(70,657.63782)"
     style="display:inline;opacity:1"
     inkscape:label="#inactive-center">
    <rect
       ry="11.5"
       y="-693.63782"
       x="-70"
       height="23"
       width="23"
       id="rect626"
       style="opacity:0;fill:#1f1f1f;fill-opacity:0.0980392;stroke:none;stroke-width:0.92;stroke-linecap:round;stroke-linejoin:miter;stroke-miterlimit:4;stroke-dasharray:none;stroke-opacity:1;paint-order:stroke fill markers" />
    <path
       d="m -52.1467,-687.78319 c 0.521596,-0.4997 -0.401256,-1.22905 -0.785992,-0.62998 -1.022669,1.02299 -2.045339,2.04599 -3.068008,3.06898 -0.0062,-0.63019 0.01251,-1.2616 -0.0097,-1.891 -0.123032,-0.67268 -1.158132,-0.39279 -0.990271,0.24509 0.0075,0.95666 -0.01512,1.9148 0.01164,2.87051 0.08691,0.50099 0.6322,0.50365 1.029622,0.4824 0.852099,-0.006 1.70544,0.0127 2.556744,-0.01 0.672653,-0.12309 0.392775,-1.1582 -0.245128,-0.9903 -0.548638,0 -1.097276,0 -1.645914,0 1.049,-1.04867 2.098,-2.09734 3.147,-3.146 z m -8.352438,11.1463 c -0.493701,0.003 -0.532486,-0.5348 -0.5,-0.90449 0,-0.46283 0,-0.92567 0,-1.38851 -1.07611,1.06738 -2.134965,2.15379 -3.221858,3.20928 -0.563114,0.38975 -1.098775,-0.54129 -0.52812,-0.87427 1.014326,-1.014 2.028652,-2.02801 3.042978,-3.04201 -0.630188,-0.006 -1.261601,0.0125 -1.890996,-0.01 -0.672671,-0.12306 -0.392802,-1.15814 0.245082,-0.99029 0.956662,0.007 1.914806,-0.0151 2.870516,0.0116 0.50099,0.0869 0.503651,0.6322 0.482398,1.02962 -0.0063,0.85209 0.01266,1.70543 -0.0097,2.55672 -0.04164,0.22862 -0.257966,0.40593 -0.490305,0.402 z"
       id="path839-6-56"
       style="opacity:1;fill:#9e9ede;fill-opacity:0.5;stroke:none" />
  </g>
  <g
     style="display:inline"
     transform="translate(70,771.63782)"
     id="pressed-center"
     inkscape:label="#pressed-center">
    <rect
       style="opacity:1;fill:#47476b;fill-opacity:1;stroke:none;stroke-width:0.92;stroke-linecap:round;stroke-linejoin:miter;stroke-miterlimit:4;stroke-dasharray:none;stroke-opacity:1;paint-order:stroke fill markers"
       id="rect650"
       width="23"
       height="23"
       x="-70"
       y="-693.63782"
       ry="4.0028729" />
    <path
       d="m -52.146932,-687.78482 c 0.521596,-0.4997 -0.401256,-1.22905 -0.785992,-0.62998 -1.022669,1.02299 -2.045339,2.04599 -3.068008,3.06898 -0.0062,-0.63019 0.01251,-1.2616 -0.0097,-1.891 -0.123032,-0.67268 -1.158132,-0.39279 -0.990271,0.24509 0.0075,0.95666 -0.01512,1.9148 0.01164,2.87051 0.08691,0.50099 0.6322,0.50365 1.029622,0.4824 0.852099,-0.006 1.70544,0.0127 2.556744,-0.01 0.672653,-0.12309 0.392775,-1.1582 -0.245128,-0.9903 -0.548638,0 -1.097276,0 -1.645914,0 1.049,-1.04867 2.098,-2.09734 3.147,-3.146 z m -8.352438,11.1463 c -0.493701,0.003 -0.532486,-0.5348 -0.5,-0.90449 0,-0.46283 0,-0.92567 0,-1.38851 -1.07611,1.06738 -2.134965,2.15379 -3.221858,3.20928 -0.563114,0.38975 -1.098775,-0.54129 -0.52812,-0.87427 1.014326,-1.014 2.028652,-2.02801 3.042978,-3.04201 -0.630188,-0.006 -1.261601,0.0125 -1.890996,-0.01 -0.672671,-0.12306 -0.392802,-1.15814 0.245082,-0.99029 0.956662,0.007 1.914806,-0.0151 2.870516,0.0116 0.50099,0.0869 0.503651,0.6322 0.482398,1.02962 -0.0063,0.85209 0.01266,1.70543 -0.0097,2.55672 -0.04164,0.22862 -0.257966,0.40593 -0.490305,0.402 z"
       id="path839-6-9-2"
       style="fill:#f86797;fill-opacity:1;stroke:none" />
  </g>
  <g
     style="display:inline"
     transform="translate(70,693.63782)"
     id="active-center"
     inkscape:label="#active-center">
    <rect
       style="opacity:0;fill:#1f1f1f;fill-opacity:0.0980392;stroke:none;stroke-width:0.92;stroke-linecap:round;stroke-linejoin:miter;stroke-miterlimit:4;stroke-dasharray:none;stroke-opacity:1;paint-order:stroke fill markers"
       id="rect674"
       width="23"
       height="23"
       x="-70"
       y="-693.63782"
       ry="11.5" />
    <path
       d="m -60.499138,-676.63689 h -5e-6 c 0.232339,0.004 0.448665,-0.17338 0.490305,-0.402 0.02236,-0.85129 0.0034,-1.70463 0.0097,-2.55672 0.02125,-0.39742 0.01859,-0.94271 -0.482398,-1.02962 -0.95571,-0.0267 -1.913854,-0.004 -2.870516,-0.0116 -0.637884,-0.16785 -0.917753,0.86723 -0.245082,0.99029 0.629395,0.0222 1.260808,0.004 1.890996,0.01 -1.014326,1.014 -2.028652,2.02801 -3.042978,3.04201 -0.570655,0.33298 -0.03499,1.26402 0.52812,0.87427 1.086893,-1.05549 2.145748,-2.1419 3.221858,-3.20928 0,0.46284 0,0.92568 0,1.38851 -0.03249,0.36969 0.0063,0.90709 0.5,0.90449 z m 8.352438,-11.1463 h -7e-6 c -1.049,1.04866 -2.098,2.09733 -3.147,3.146 0.548638,0 1.097276,0 1.645914,0 0.637903,-0.1679 0.917781,0.86721 0.245128,0.9903 -0.851304,0.0224 -1.704645,0.003 -2.556744,0.01 -0.397422,0.0213 -0.942712,0.0186 -1.029622,-0.4824 -0.02676,-0.95571 -0.0041,-1.91385 -0.01164,-2.87051 -0.167861,-0.63788 0.867239,-0.91777 0.990271,-0.24509 0.02221,0.6294 0.0035,1.26081 0.0097,1.891 1.022669,-1.02299 2.045339,-2.04599 3.068008,-3.06898 0.384736,-0.59907 1.307588,0.13028 0.785992,0.62998 z"
       id="path839-6"
       style="opacity:0.5;fill:#9e9ede;fill-opacity:1;stroke:none" />
  </g>
  <g
     inkscape:label="#deactivated-center"
     style="display:inline;opacity:1"
     transform="translate(70,623.63782)"
     id="deactivated-center">
    <rect
       style="opacity:0;fill:#1f1f1f;fill-opacity:0.0980392;stroke:none;stroke-width:0.92;stroke-linecap:round;stroke-linejoin:miter;stroke-miterlimit:4;stroke-dasharray:none;stroke-opacity:1;paint-order:stroke fill markers"
       id="rect884"
       width="23"
       height="23"
       x="-70"
       y="-693.63782"
       ry="11.5" />
    <path
       d="m -52.146932,-687.78319 c 0.521596,-0.4997 -0.401256,-1.22905 -0.785992,-0.62998 -1.022669,1.02299 -2.045339,2.04599 -3.068008,3.06898 -0.0062,-0.63019 0.01251,-1.2616 -0.0097,-1.891 -0.123032,-0.67268 -1.158132,-0.39279 -0.990271,0.24509 0.0075,0.95666 -0.01512,1.9148 0.01164,2.87051 0.08691,0.50099 0.6322,0.50365 1.029622,0.4824 0.852099,-0.006 1.70544,0.0127 2.556744,-0.01 0.672653,-0.12309 0.392775,-1.1582 -0.245128,-0.9903 -0.548638,0 -1.097276,0 -1.645914,0 1.049,-1.04867 2.098,-2.09734 3.147,-3.146 z m -8.352438,11.1463 c -0.493701,0.003 -0.532486,-0.5348 -0.5,-0.90449 0,-0.46283 0,-0.92567 0,-1.38851 -1.07611,1.06738 -2.134965,2.15379 -3.221858,3.20928 -0.563114,0.38975 -1.098775,-0.54129 -0.52812,-0.87427 1.014326,-1.014 2.028652,-2.02801 3.042978,-3.04201 -0.630188,-0.006 -1.261601,0.0125 -1.890996,-0.01 -0.672671,-0.12306 -0.392802,-1.15814 0.245082,-0.99029 0.956662,0.007 1.914806,-0.0151 2.870516,0.0116 0.50099,0.0869 0.503651,0.6322 0.482398,1.02962 -0.0063,0.85209 0.01266,1.70543 -0.0097,2.55672 -0.04164,0.22862 -0.257966,0.40593 -0.490305,0.402 z"
       id="path839-6-5"
       style="opacity:1;fill:#9e9ede;fill-opacity:0.5;stroke:none" />
  </g>
</svg>
