<?xml version="1.0" encoding="UTF-8" standalone="no"?>
<svg
   id="svg4306"
   width="23"
   height="23"
   version="1.1"
   style="enable-background:new"
   sodipodi:docname="restore.svg"
   inkscape:version="1.1.2 (0a00cf5339, 2022-02-04, custom)"
   xmlns:inkscape="http://www.inkscape.org/namespaces/inkscape"
   xmlns:sodipodi="http://sodipodi.sourceforge.net/DTD/sodipodi-0.dtd"
   xmlns="http://www.w3.org/2000/svg"
   xmlns:svg="http://www.w3.org/2000/svg"
   xmlns:rdf="http://www.w3.org/1999/02/22-rdf-syntax-ns#"
   xmlns:cc="http://creativecommons.org/ns#"
   xmlns:dc="http://purl.org/dc/elements/1.1/">
  <metadata
     id="metadata24">
    <rdf:RDF>
      <cc:Work
         rdf:about="">
        <dc:format>image/svg+xml</dc:format>
        <dc:type
           rdf:resource="http://purl.org/dc/dcmitype/StillImage" />
      </cc:Work>
    </rdf:RDF>
  </metadata>
  <defs
     id="defs22">
    <inkscape:path-effect
       effect="fillet_chamfer"
       id="path-effect1933"
       is_visible="true"
       lpeversion="1"
       satellites_param="F,0,0,1,0,0,0,1 @ F,0,0,1,0,2,0,1 @ F,0,0,1,0,2,0,1"
       unit="px"
       method="auto"
       mode="F"
       radius="2"
       chamfer_steps="1"
       flexible="false"
       use_knot_distance="true"
       apply_no_radius="true"
       apply_with_radius="true"
       only_selected="false"
       hide_knots="false" />
    <inkscape:path-effect
       effect="fillet_chamfer"
       id="path-effect1398"
       is_visible="true"
       lpeversion="1"
       satellites_param="F,0,0,1,0,0,0,1 @ F,0,0,1,0,0,0,1 @ F,0,0,1,0,0,0,1 @ F,0,0,1,0,0,0,1 @ F,0,0,1,0,0,0,1 @ F,0,0,1,0,0,0,1 @ F,0,0,1,0,0,0,1 @ F,0,0,1,0,0,0,1"
       unit="px"
       method="auto"
       mode="F"
       radius="0"
       chamfer_steps="1"
       flexible="false"
       use_knot_distance="true"
       apply_no_radius="true"
       apply_with_radius="true"
       only_selected="false"
       hide_knots="false" />
    <linearGradient
       id="fg_color"
       inkscape:swatch="solid">
      <stop
         style="stop-color:#d3dae3;stop-opacity:1;"
         offset="0"
         id="stop1387" />
    </linearGradient>
    <inkscape:path-effect
       effect="fillet_chamfer"
       id="path-effect1933-3"
       is_visible="true"
       lpeversion="1"
       satellites_param="F,0,0,1,0,0,0,1 @ F,0,0,1,0,2,0,1 @ F,0,0,1,0,2,0,1"
       unit="px"
       method="auto"
       mode="F"
       radius="2"
       chamfer_steps="1"
       flexible="false"
       use_knot_distance="true"
       apply_no_radius="true"
       apply_with_radius="true"
       only_selected="false"
       hide_knots="false" />
    <inkscape:path-effect
       effect="fillet_chamfer"
       id="path-effect1933-3-7"
       is_visible="true"
       lpeversion="1"
       satellites_param="F,0,0,1,0,0,0,1 @ F,0,0,1,0,1,0,1 @ F,0,0,1,0,1,0,1 | F,0,0,1,0,0,0,1 @ F,0,0,1,0,1,0,1 @ F,0,0,1,0,1,0,1 | F,0,0,1,0,0,0,1 @ F,0,0,1,0,1,0,1 @ F,0,0,1,0,1,0,1 | F,0,0,1,0,0,0,1 @ F,0,0,1,0,1,0,1 @ F,0,0,1,0,1,0,1"
       unit="px"
       method="auto"
       mode="F"
       radius="1"
       chamfer_steps="1"
       flexible="false"
       use_knot_distance="true"
       apply_no_radius="true"
       apply_with_radius="true"
       only_selected="false"
       hide_knots="false" />
    <inkscape:path-effect
       effect="fillet_chamfer"
       id="path-effect1933-5"
       is_visible="true"
       lpeversion="1"
       satellites_param="F,0,0,1,0,0,0,1 @ F,0,0,1,0,2,0,1 @ F,0,0,1,0,2,0,1"
       unit="px"
       method="auto"
       mode="F"
       radius="2"
       chamfer_steps="1"
       flexible="false"
       use_knot_distance="true"
       apply_no_radius="true"
       apply_with_radius="true"
       only_selected="false"
       hide_knots="false" />
    <inkscape:path-effect
       effect="fillet_chamfer"
       id="path-effect1933-3-7-6"
       is_visible="true"
       lpeversion="1"
       satellites_param="F,0,0,1,0,0,0,1 @ F,0,0,1,0,1,0,1 @ F,0,0,1,0,1,0,1 | F,0,0,1,0,0,0,1 @ F,0,0,1,0,1,0,1 @ F,0,0,1,0,1,0,1 | F,0,0,1,0,0,0,1 @ F,0,0,1,0,1,0,1 @ F,0,0,1,0,1,0,1 | F,0,0,1,0,0,0,1 @ F,0,0,1,0,1,0,1 @ F,0,0,1,0,1,0,1"
       unit="px"
       method="auto"
       mode="F"
       radius="1"
       chamfer_steps="1"
       flexible="false"
       use_knot_distance="true"
       apply_no_radius="true"
       apply_with_radius="true"
       only_selected="false"
       hide_knots="false" />
    <inkscape:path-effect
       effect="fillet_chamfer"
       id="path-effect1933-3-7-6-2"
       is_visible="true"
       lpeversion="1"
       satellites_param="F,0,0,1,0,0,0,1 @ F,0,0,1,0,1,0,1 @ F,0,0,1,0,0,0,1"
       unit="px"
       method="auto"
       mode="F"
       radius="1"
       chamfer_steps="1"
       flexible="false"
       use_knot_distance="true"
       apply_no_radius="true"
       apply_with_radius="true"
       only_selected="false"
       hide_knots="false" />
    <inkscape:path-effect
       effect="fillet_chamfer"
       id="path-effect1933-3-7-6-2-1"
       is_visible="true"
       lpeversion="1"
       satellites_param="F,0,0,1,0,0,0,1 @ F,0,0,1,0,1,0,1 @ F,0,0,1,0,1,0,1 | F,0,0,1,0,0,0,1 @ F,0,0,1,0,1,0,1 @ F,0,0,1,0,1,0,1 | F,0,0,1,0,0,0,1 @ F,0,0,1,0,1,0,1 @ F,0,0,1,0,1,0,1 | F,0,0,1,0,0,0,1 @ F,0,0,1,0,1,0,1 @ F,0,0,1,0,1,0,1"
       unit="px"
       method="auto"
       mode="F"
       radius="1"
       chamfer_steps="1"
       flexible="false"
       use_knot_distance="true"
       apply_no_radius="true"
       apply_with_radius="true"
       only_selected="false"
       hide_knots="false" />
    <inkscape:path-effect
       effect="fillet_chamfer"
       id="path-effect1933-3-7-6-2-7"
       is_visible="true"
       lpeversion="1"
       satellites_param="F,0,0,1,0,0,0,1 @ F,0,0,1,0,1,0,1 @ F,0,0,1,0,1,0,1 | F,0,0,1,0,0,0,1 @ F,0,0,1,0,1,0,1 @ F,0,0,1,0,1,0,1 | F,0,0,1,0,0,0,1 @ F,0,0,1,0,1,0,1 @ F,0,0,1,0,1,0,1 | F,0,0,1,0,0,0,1 @ F,0,0,1,0,1,0,1 @ F,0,0,1,0,1,0,1"
       unit="px"
       method="auto"
       mode="F"
       radius="1"
       chamfer_steps="1"
       flexible="false"
       use_knot_distance="true"
       apply_no_radius="true"
       apply_with_radius="true"
       only_selected="false"
       hide_knots="false" />
    <inkscape:path-effect
       effect="fillet_chamfer"
       id="path-effect1933-3-7-6-2-9"
       is_visible="true"
       lpeversion="1"
       satellites_param="F,0,0,1,0,0,0,1 @ F,0,0,1,0,1,0,1 @ F,0,0,1,0,1,0,1 | F,0,0,1,0,0,0,1 @ F,0,0,1,0,1,0,1 @ F,0,0,1,0,1,0,1 | F,0,0,1,0,0,0,1 @ F,0,0,1,0,1,0,1 @ F,0,0,1,0,1,0,1 | F,0,0,1,0,0,0,1 @ F,0,0,1,0,1,0,1 @ F,0,0,1,0,1,0,1"
       unit="px"
       method="auto"
       mode="F"
       radius="1"
       chamfer_steps="1"
       flexible="false"
       use_knot_distance="true"
       apply_no_radius="true"
       apply_with_radius="true"
       only_selected="false"
       hide_knots="false" />
    <inkscape:path-effect
       effect="fillet_chamfer"
       id="path-effect1933-3-7-6-2-1-3"
       is_visible="true"
       lpeversion="1"
       satellites_param="F,0,0,1,0,0,0,1 @ F,0,0,1,0,1,0,1 @ F,0,0,1,0,0,0,1"
       unit="px"
       method="auto"
       mode="F"
       radius="1"
       chamfer_steps="1"
       flexible="false"
       use_knot_distance="true"
       apply_no_radius="true"
       apply_with_radius="true"
       only_selected="false"
       hide_knots="false" />
    <inkscape:path-effect
       effect="fillet_chamfer"
       id="path-effect1933-3-7-6-2-1-7"
       is_visible="true"
       lpeversion="1"
       satellites_param="F,0,0,1,0,0,0,1 @ F,0,0,1,0,1,0,1 @ F,0,0,1,0,1,0,1 | F,0,0,1,0,0,0,1 @ F,0,0,1,0,1,0,1 @ F,0,0,1,0,1,0,1 | F,0,0,1,0,0,0,1 @ F,0,0,1,0,1,0,1 @ F,0,0,1,0,1,0,1 | F,0,0,1,0,0,0,1 @ F,0,0,1,0,1,0,1 @ F,0,0,1,0,1,0,1"
       unit="px"
       method="auto"
       mode="F"
       radius="1"
       chamfer_steps="1"
       flexible="false"
       use_knot_distance="true"
       apply_no_radius="true"
       apply_with_radius="true"
       only_selected="false"
       hide_knots="false" />
    <inkscape:path-effect
       effect="fillet_chamfer"
       id="path-effect1933-3-7-6-2-1-3-3"
       is_visible="true"
       lpeversion="1"
       satellites_param="F,0,0,1,0,0,0,1 @ F,0,0,1,0,1,0,1 @ F,0,0,1,0,0,0,1"
       unit="px"
       method="auto"
       mode="F"
       radius="1"
       chamfer_steps="1"
       flexible="false"
       use_knot_distance="true"
       apply_no_radius="true"
       apply_with_radius="true"
       only_selected="false"
       hide_knots="false" />
    <inkscape:path-effect
       effect="fillet_chamfer"
       id="path-effect1933-3-7-6-2-1-3-6"
       is_visible="true"
       lpeversion="1"
       satellites_param="F,0,0,1,0,0,0,1 @ F,0,0,1,0,1,0,1 @ F,0,0,1,0,0,0,1"
       unit="px"
       method="auto"
       mode="F"
       radius="1"
       chamfer_steps="1"
       flexible="false"
       use_knot_distance="true"
       apply_no_radius="true"
       apply_with_radius="true"
       only_selected="false"
       hide_knots="false" />
    <inkscape:path-effect
       effect="fillet_chamfer"
       id="path-effect1933-3-7-6-2-1-3-6-9"
       is_visible="true"
       lpeversion="1"
       satellites_param="F,0,0,1,0,0,0,1 @ F,0,0,1,0,1,0,1 @ F,0,0,1,0,0,0,1"
       unit="px"
       method="auto"
       mode="F"
       radius="1"
       chamfer_steps="1"
       flexible="false"
       use_knot_distance="true"
       apply_no_radius="true"
       apply_with_radius="true"
       only_selected="false"
       hide_knots="false" />
    <inkscape:path-effect
       effect="fillet_chamfer"
       id="path-effect1933-3-7-6-2-1-3-1"
       is_visible="true"
       lpeversion="1"
       satellites_param="F,0,0,1,0,0,0,1 @ F,0,0,1,0,1,0,1 @ F,0,0,1,0,0,0,1"
       unit="px"
       method="auto"
       mode="F"
       radius="1"
       chamfer_steps="1"
       flexible="false"
       use_knot_distance="true"
       apply_no_radius="true"
       apply_with_radius="true"
       only_selected="false"
       hide_knots="false" />
    <inkscape:path-effect
       effect="fillet_chamfer"
       id="path-effect1933-3-7-6-2-1-3-9"
       is_visible="true"
       lpeversion="1"
       satellites_param="F,0,0,1,0,0,0,1 @ F,0,0,1,0,1,0,1 @ F,0,0,1,0,0,0,1"
       unit="px"
       method="auto"
       mode="F"
       radius="1"
       chamfer_steps="1"
       flexible="false"
       use_knot_distance="true"
       apply_no_radius="true"
       apply_with_radius="true"
       only_selected="false"
       hide_knots="false" />
    <inkscape:path-effect
       effect="fillet_chamfer"
       id="path-effect1933-3-7-6-2-1-3-9-6"
       is_visible="true"
       lpeversion="1"
       satellites_param="F,0,0,1,0,0,0,1 @ F,0,0,1,0,1,0,1 @ F,0,0,1,0,0,0,1 | F,0,0,1,0,0,0,1 @ F,0,0,1,0,1,0,1 @ F,0,0,1,0,0,0,1 | F,0,0,1,0,0,0,1 @ F,0,0,1,0,1,0,1 @ F,0,0,1,0,0,0,1 | F,0,0,1,0,0,0,1 @ F,0,0,1,0,1,0,1 @ F,0,0,1,0,0,0,1"
       unit="px"
       method="auto"
       mode="F"
       radius="1"
       chamfer_steps="1"
       flexible="false"
       use_knot_distance="true"
       apply_no_radius="true"
       apply_with_radius="true"
       only_selected="false"
       hide_knots="false" />
    <inkscape:path-effect
       effect="fillet_chamfer"
       id="path-effect1933-3-7-6-2-1-3-0"
       is_visible="true"
       lpeversion="1"
       satellites_param="F,0,0,1,0,0,0,1 @ F,0,0,1,0,1,0,1 @ F,0,0,1,0,0,0,1"
       unit="px"
       method="auto"
       mode="F"
       radius="1"
       chamfer_steps="1"
       flexible="false"
       use_knot_distance="true"
       apply_no_radius="true"
       apply_with_radius="true"
       only_selected="false"
       hide_knots="false" />
    <inkscape:path-effect
       effect="fillet_chamfer"
       id="path-effect1933-3-7-6-2-1-3-9-6-6"
       is_visible="true"
       lpeversion="1"
       satellites_param="F,0,0,1,0,0,0,1 @ F,0,0,1,0,1,0,1 @ F,0,0,1,0,0,0,1 | F,0,0,1,0,0,0,1 @ F,0,0,1,0,1,0,1 @ F,0,0,1,0,0,0,1 | F,0,0,1,0,0,0,1 @ F,0,0,1,0,1,0,1 @ F,0,0,1,0,0,0,1 | F,0,0,1,0,0,0,1 @ F,0,0,1,0,1,0,1 @ F,0,0,1,0,0,0,1"
       unit="px"
       method="auto"
       mode="F"
       radius="1"
       chamfer_steps="1"
       flexible="false"
       use_knot_distance="true"
       apply_no_radius="true"
       apply_with_radius="true"
       only_selected="false"
       hide_knots="false" />
  </defs>
  <sodipodi:namedview
     pagecolor="#21212c"
     bordercolor="#666666"
     borderopacity="1"
     objecttolerance="10"
     gridtolerance="10"
     guidetolerance="10"
     inkscape:pageopacity="0"
     inkscape:pageshadow="2"
     inkscape:window-width="1896"
     inkscape:window-height="996"
     id="namedview20"
     showgrid="true"
     inkscape:zoom="4"
     inkscape:cx="-11.75"
     inkscape:cy="23.625"
     inkscape:window-x="8"
     inkscape:window-y="42"
     inkscape:window-maximized="0"
     inkscape:current-layer="svg4306"
     inkscape:pagecheckerboard="0"
     inkscape:snap-midpoints="true"
     inkscape:snap-to-guides="false"
     inkscape:snap-object-midpoints="true">
    <inkscape:grid
       type="xygrid"
       id="grid883"
       color="#666699"
       opacity="0.1254902"
       empcolor="#666699"
       empopacity="0.25098039"
       originx="0"
       originy="0" />
  </sodipodi:namedview>
  <g
     style="display:inline"
     id="hover-center"
     transform="translate(33,733.63782)"
     inkscape:label="#hover-center">
    <rect
       style="opacity:0.5;fill:#47476b;fill-opacity:1;stroke:none;stroke-width:0.92;stroke-linecap:round;stroke-linejoin:miter;stroke-miterlimit:4;stroke-dasharray:none;stroke-opacity:1;paint-order:stroke fill markers"
       id="rect575"
       width="23"
       height="23"
       x="-33"
       y="-694.63782"
       ry="3.9999974" />
    <path
       style="color:#000000;display:inline;opacity:1;fill:#9e9ede;stroke-linecap:round;-inkscape-stroke:none;enable-background:new"
       d="m -24.5,-676.63684 a 0.5,0.5 0 0 1 -0.5,-0.5 v -2.00195 c 0,-0.28207 -0.217936,-0.5 -0.5,-0.5 h -2 a 0.5,0.5 0 0 1 -0.5,-0.5 0.5,0.5 0 0 1 0.5,-0.5 h 2 c 0.822504,0 1.5,0.67749 1.5,1.5 v 2.00195 a 0.5,0.5 0 0 1 -0.5,0.5 z m 6,0 a 0.5,0.5 0 0 1 -0.5,-0.5 v -2.00195 c 0,-0.82251 0.677496,-1.5 1.5,-1.5 h 2 a 0.5,0.5 0 0 1 0.5,0.5 0.5,0.5 0 0 1 -0.5,0.5 h -2 c -0.282064,0 -0.5,0.21793 -0.5,0.5 v 2.00195 a 0.5,0.5 0 0 1 -0.5,0.5 z m -9,-9 a 0.5,0.5 0 0 1 -0.5,-0.5 0.5,0.5 0 0 1 0.5,-0.5 h 2 c 0.282064,0 0.5,-0.21793 0.5,-0.5 v -2.00195 a 0.5,0.5 0 0 1 0.5,-0.5 0.5,0.5 0 0 1 0.5,0.5 v 2.00195 c 0,0.82251 -0.677496,1.5 -1.5,1.5 z m 10,0 c -0.822504,0 -1.5,-0.67749 -1.5,-1.5 v -2.00195 a 0.5,0.5 0 0 1 0.5,-0.5 0.5,0.5 0 0 1 0.5,0.5 v 2.00195 c 0,0.28207 0.217936,0.5 0.5,0.5 h 2 a 0.5,0.5 0 0 1 0.5,0.5 0.5,0.5 0 0 1 -0.5,0.5 z"
       id="path1771-6-5-9-2-6-3-2-9" />
  </g>
  <g
     id="inactive-center"
     transform="translate(33,658.63782)"
     style="display:inline;opacity:0.5"
     inkscape:label="#inactive-center">
    <rect
       style="opacity:0;fill:#1f1f1f;fill-opacity:0.0980392;stroke:none;stroke-width:0.92;stroke-linecap:round;stroke-linejoin:miter;stroke-miterlimit:4;stroke-dasharray:none;stroke-opacity:1;paint-order:stroke fill markers"
       id="rect632"
       width="23"
       height="23"
       x="-33"
       y="-694.63782"
       ry="11.5" />
    <path
       style="color:#000000;display:inline;opacity:1;fill:#9e9ede;stroke-linecap:round;-inkscape-stroke:none;enable-background:new"
       d="m -24.5,-676.63684 a 0.5,0.5 0 0 1 -0.5,-0.5 v -2.00195 c 0,-0.28207 -0.217936,-0.5 -0.5,-0.5 h -2 a 0.5,0.5 0 0 1 -0.5,-0.5 0.5,0.5 0 0 1 0.5,-0.5 h 2 c 0.822504,0 1.5,0.67749 1.5,1.5 v 2.00195 a 0.5,0.5 0 0 1 -0.5,0.5 z m 6,0 a 0.5,0.5 0 0 1 -0.5,-0.5 v -2.00195 c 0,-0.82251 0.677496,-1.5 1.5,-1.5 h 2 a 0.5,0.5 0 0 1 0.5,0.5 0.5,0.5 0 0 1 -0.5,0.5 h -2 c -0.282064,0 -0.5,0.21793 -0.5,0.5 v 2.00195 a 0.5,0.5 0 0 1 -0.5,0.5 z m -9,-9 a 0.5,0.5 0 0 1 -0.5,-0.5 0.5,0.5 0 0 1 0.5,-0.5 h 2 c 0.282064,0 0.5,-0.21793 0.5,-0.5 v -2.00195 a 0.5,0.5 0 0 1 0.5,-0.5 0.5,0.5 0 0 1 0.5,0.5 v 2.00195 c 0,0.82251 -0.677496,1.5 -1.5,1.5 z m 10,0 c -0.822504,0 -1.5,-0.67749 -1.5,-1.5 v -2.00195 a 0.5,0.5 0 0 1 0.5,-0.5 0.5,0.5 0 0 1 0.5,0.5 v 2.00195 c 0,0.28207 0.217936,0.5 0.5,0.5 h 2 a 0.5,0.5 0 0 1 0.5,0.5 0.5,0.5 0 0 1 -0.5,0.5 z"
       id="path1771-6-5-9-2-6-3-2-8" />
  </g>
  <g
     style="display:inline"
     transform="translate(33,772.63782)"
     id="pressed-center"
     inkscape:label="#pressed-center">
    <rect
       ry="3.9999974"
       y="-694.63782"
       x="-33"
       height="23"
       width="23"
       id="rect656"
       style="opacity:1;fill:#47476b;fill-opacity:1;stroke:none;stroke-width:0.92;stroke-linecap:round;stroke-linejoin:miter;stroke-miterlimit:4;stroke-dasharray:none;stroke-opacity:1;paint-order:stroke fill markers" />
    <path
       style="color:#000000;display:inline;opacity:1;fill:#f86797;fill-opacity:1;stroke-linecap:round;-inkscape-stroke:none;enable-background:new"
       d="m -24.5,-676.63684 a 0.5,0.5 0 0 1 -0.5,-0.5 v -2.00195 c 0,-0.28207 -0.217936,-0.5 -0.5,-0.5 h -2 a 0.5,0.5 0 0 1 -0.5,-0.5 0.5,0.5 0 0 1 0.5,-0.5 h 2 c 0.822504,0 1.5,0.67749 1.5,1.5 v 2.00195 a 0.5,0.5 0 0 1 -0.5,0.5 z m 6,0 a 0.5,0.5 0 0 1 -0.5,-0.5 v -2.00195 c 0,-0.82251 0.677496,-1.5 1.5,-1.5 h 2 a 0.5,0.5 0 0 1 0.5,0.5 0.5,0.5 0 0 1 -0.5,0.5 h -2 c -0.282064,0 -0.5,0.21793 -0.5,0.5 v 2.00195 a 0.5,0.5 0 0 1 -0.5,0.5 z m -9,-9 a 0.5,0.5 0 0 1 -0.5,-0.5 0.5,0.5 0 0 1 0.5,-0.5 h 2 c 0.282064,0 0.5,-0.21793 0.5,-0.5 v -2.00195 a 0.5,0.5 0 0 1 0.5,-0.5 0.5,0.5 0 0 1 0.5,0.5 v 2.00195 c 0,0.82251 -0.677496,1.5 -1.5,1.5 z m 10,0 c -0.822504,0 -1.5,-0.67749 -1.5,-1.5 v -2.00195 a 0.5,0.5 0 0 1 0.5,-0.5 0.5,0.5 0 0 1 0.5,0.5 v 2.00195 c 0,0.28207 0.217936,0.5 0.5,0.5 h 2 a 0.5,0.5 0 0 1 0.5,0.5 0.5,0.5 0 0 1 -0.5,0.5 z"
       id="path1771-6-5-9-2-6-3-2-2" />
  </g>
  <g
     style="display:inline"
     transform="translate(33,694.63782)"
     id="active-center"
     inkscape:label="#active-center">
    <rect
       ry="11.5"
       y="-694.63782"
       x="-33"
       height="23"
       width="23"
       id="rect680"
       style="opacity:0;fill:#1f1f1f;fill-opacity:0.0980392;stroke:none;stroke-width:0.92;stroke-linecap:round;stroke-linejoin:miter;stroke-miterlimit:4;stroke-dasharray:none;stroke-opacity:1;paint-order:stroke fill markers" />
    <path
       style="color:#000000;display:inline;opacity:0.5;fill:#9e9ede;stroke-linecap:round;-inkscape-stroke:none;enable-background:new"
       d="m -24.5,-676.63684 a 0.5,0.5 0 0 1 -0.5,-0.5 v -2.00195 c 0,-0.28207 -0.217936,-0.5 -0.5,-0.5 h -2 a 0.5,0.5 0 0 1 -0.5,-0.5 0.5,0.5 0 0 1 0.5,-0.5 h 2 c 0.822504,0 1.5,0.67749 1.5,1.5 v 2.00195 a 0.5,0.5 0 0 1 -0.5,0.5 z m 6,0 a 0.5,0.5 0 0 1 -0.5,-0.5 v -2.00195 c 0,-0.82251 0.677496,-1.5 1.5,-1.5 h 2 a 0.5,0.5 0 0 1 0.5,0.5 0.5,0.5 0 0 1 -0.5,0.5 h -2 c -0.282064,0 -0.5,0.21793 -0.5,0.5 v 2.00195 a 0.5,0.5 0 0 1 -0.5,0.5 z m -9,-9 a 0.5,0.5 0 0 1 -0.5,-0.5 0.5,0.5 0 0 1 0.5,-0.5 h 2 c 0.282064,0 0.5,-0.21793 0.5,-0.5 v -2.00195 a 0.5,0.5 0 0 1 0.5,-0.5 0.5,0.5 0 0 1 0.5,0.5 v 2.00195 c 0,0.82251 -0.677496,1.5 -1.5,1.5 z m 10,0 c -0.822504,0 -1.5,-0.67749 -1.5,-1.5 v -2.00195 a 0.5,0.5 0 0 1 0.5,-0.5 0.5,0.5 0 0 1 0.5,0.5 v 2.00195 c 0,0.28207 0.217936,0.5 0.5,0.5 h 2 a 0.5,0.5 0 0 1 0.5,0.5 0.5,0.5 0 0 1 -0.5,0.5 z"
       id="path1771-6-5-9-2-6-3-2-9-0" />
  </g>
  <g
     inkscape:label="#deactivated-center"
     style="display:inline;opacity:0.5"
     transform="translate(33,629.63782)"
     id="deactivated-center">
    <rect
       ry="11.5"
       y="-694.63782"
       x="-33"
       height="23"
       width="23"
       id="rect885"
       style="opacity:0;fill:#1f1f1f;fill-opacity:0.0980392;stroke:none;stroke-width:0.92;stroke-linecap:round;stroke-linejoin:miter;stroke-miterlimit:4;stroke-dasharray:none;stroke-opacity:1;paint-order:stroke fill markers" />
    <path
       style="color:#000000;fill:#9e9ede;stroke-linecap:round;-inkscape-stroke:none"
       d="m -24.5,-676.63672 a 0.5,0.5 0 0 1 -0.5,-0.5 v -2.00195 c 0,-0.28207 -0.217936,-0.5 -0.5,-0.5 h -2 a 0.5,0.5 0 0 1 -0.5,-0.5 0.5,0.5 0 0 1 0.5,-0.5 h 2 c 0.822504,0 1.5,0.67749 1.5,1.5 v 2.00195 a 0.5,0.5 0 0 1 -0.5,0.5 z m 6,0 a 0.5,0.5 0 0 1 -0.5,-0.5 v -2.00195 c 0,-0.82251 0.677496,-1.5 1.5,-1.5 h 2 a 0.5,0.5 0 0 1 0.5,0.5 0.5,0.5 0 0 1 -0.5,0.5 h -2 c -0.282064,0 -0.5,0.21793 -0.5,0.5 v 2.00195 a 0.5,0.5 0 0 1 -0.5,0.5 z m -9,-9 a 0.5,0.5 0 0 1 -0.5,-0.5 0.5,0.5 0 0 1 0.5,-0.5 h 2 c 0.282064,0 0.5,-0.21793 0.5,-0.5 v -2.00195 a 0.5,0.5 0 0 1 0.5,-0.5 0.5,0.5 0 0 1 0.5,0.5 v 2.00195 c 0,0.82251 -0.677496,1.5 -1.5,1.5 z m 10,0 c -0.822504,0 -1.5,-0.67749 -1.5,-1.5 v -2.00195 a 0.5,0.5 0 0 1 0.5,-0.5 0.5,0.5 0 0 1 0.5,0.5 v 2.00195 c 0,0.28207 0.217936,0.5 0.5,0.5 h 2 a 0.5,0.5 0 0 1 0.5,0.5 0.5,0.5 0 0 1 -0.5,0.5 z"
       id="path1771-6-5-9-2-6-3-2" />
  </g>
</svg>
